<?xml version="1.0" encoding="UTF-8"?>
<svg width="559.13" height="443.66" enable-background="new 0 0 595.28 841.89" viewBox="0 0 559.13248 443.66259" xmlns="http://www.w3.org/2000/svg">
 <g transform="translate(-18.441 -69.067)">
  <path d="m230.97 512.73 4.487-104.32-31.409 2.242-3.923 73.472-62.255 27.483z"/>
  <path d="m282.01 407.85c0 1.684 1.68 103.2 1.68 103.2s80.765 2.247 80.765 0.564-54.405-31.408-54.405-31.408l0.563-75.155-28.603 2.804z"/>
  <path d="m346.51 237.91-178.91 14.578-1.124 171.06 184.52 1.683z" fill="#0b72b5"/>
  <path d="m193.4 277.17s28.043 71.229 28.043 68.985c0-2.245 34.77-62.815 34.77-62.815l-62.813-6.17z" fill="#009ee0"/>
  <path d="m263.5 283.9 22.995 62.813 43.745-80.763z" fill="#009ee0"/>
  <path d="m376.23 183.51c0 63.182-55.993 114.41-125.07 114.41-69.069 0-125.06-51.229-125.06-114.41 0-63.19 55.997-114.42 125.06-114.42 69.081 0 125.07 51.227 125.07 114.42z" fill="#f6af6f"/>
  <path d="m186.67 290.63-107.68-85.811-19.633 26.921 117.22 89.177z" fill="#05609a"/>
  <path d="m340.34 266.52-4.486 33.651 120.58-52.159-12.339-31.406z" fill="#05609a"/>
  <path d="m254.522,406.186c-.212-33.018-.48-88.746.084-90.995l2.728.683 2.769.466c-.371,3.126-.177,55.42.042,89.81l-5.623.036z" fill="#05609a"/>
  <path d="m440.73 219.97s19.629-45.988 28.604-11.216c0 0 29.72-0.56 10.651 16.824 0 0 27.479 26.357-28.044 20.749l-11.211-26.357z" fill="#f6af6f"/>
  <path d="m547.85 121.82-107.12 19.632 35.896 140.21 100.95-21.311z" fill="#ffde91"/>
  <path d="m533.18 149.26-71.787 12.338l-0.951-5.539 71.789-12.336z"/>
  <path d="m531.57 163.83-61.693 12.341l-1.103-5.511 61.694-12.341z"/>
  <path d="m538.94 176.72-63.937 14.584l-1.253-5.482 63.94-14.584z"/>
  <path d="m478.56 206.39-1.711-5.354c1.719-0.574 49.205-10.091 63.718-12.993l1.104 5.512c-24.279 4.855-61.118 12.279-63.111 12.835z"/>
  <path d="m546.27 209.24-55.524 13.461l-1.322-5.463 55.523-13.46z"/>
  <path d="m550.72 225.51-56.645 12.902l-1.245-5.481 56.644-12.903z"/>
  <path d="m556.83 244.59-65.058 13.46l-1.137-5.506 65.057-13.462z"/>
  <path d="m146.28 186.6c0 10.992-9.667 19.909-21.591 19.909s-21.591-8.917-21.591-19.909c0-10.996 9.668-19.911 21.591-19.911s21.591 8.915 21.591 19.911z" fill="#f6af6f"/>
  <path d="m393.62 187.16c0 10.375-9.165 18.789-20.47 18.789s-20.475-8.414-20.475-18.789c0-10.373 9.169-18.787 20.475-18.787s20.47 8.415 20.47 18.787z" fill="#f6af6f"/>
  <path d="m218.07 185.48a17.105 15.982 0 1 0 -34.21 0 17.105 15.982 0 1 0 34.21 0"/>
  <path d="m307.81 187.44c0 8.982-7.156 16.264-15.985 16.264s-15.985-7.282-15.985-16.264 7.153-16.266 15.985-16.266 15.985 7.282 15.985 16.266z"/>
  <path d="m224.24 202.02s14.022 31.406 35.333 1.12" fill="#de9e65"/>
  <path d="m162.54 216.04s102.08 45.987 166.02-5.046c0 0-74.034 122.83-166.02 5.046z" fill="#fff"/>
  <path d="m164.79 158.27 3.927 8.973s39.259-20.749 57.765-10.653c0 0-12.897-17.385-61.692 1.68z"/>
  <path d="m267.42 157.15s52.72-4.482 61.692 6.172l5.61-14.585c1e-3 0-52.159-6.171-67.302 8.413z"/>
  <path d="m174.32 168.93 0.565 5.609 50.474 1.121z"/>
  <path d="m262.38 176.78 56.088-7.856-1.123 8.975z"/>
  <path d="m59.35 231.74s-53.282-5.044-35.334-21.31c0 0-15.706-22.433 5.608-20.191 0 0 7.291-21.874 21.873-8.975l27.485 23.556-19.632 26.92z" fill="#f6af6f"/>
  <path d="m209.66 188.28c0 3.252-3.011 5.889-6.731 5.889-3.713 0-6.729-2.637-6.729-5.889s3.016-5.889 6.729-5.889c3.72 0 6.731 2.634 6.731 5.889z" fill="#fff"/>
  <path d="m299.95 189.68a6.729 6.167 0 1 0 -13.458 0 6.729 6.167 0 1 0 13.458 0" fill="#fff"/>
  <path d="m131.14 149.3c-0.72 1.889 66.177-40.381 66.177-40.381l-12.336 20.191 29.722-19.633-13.461 21.315 51.599-24.681-13.461 16.826 36.458-15.143-15.706 18.508 39.821-15.702-24.68 21.874 35.334-13.461-11.778 14.021 31.411-8.972 38.141 17.946s-16.829-68.425-121.71-72.912c-1e-3 0-83.563-3.925-115.53 80.204z" fill="#915e36"/>
 </g>
</svg>
